<svg xmlns="http://www.w3.org/2000/svg" viewBox="0 0 512 512">
  <defs>
    <linearGradient id="gradient" x1="0%" y1="0%" x2="100%" y2="100%">
      <stop offset="0%" style="stop-color:#0d6efd;stop-opacity:1" />
      <stop offset="100%" style="stop-color:#6610f2;stop-opacity:1" />
    </linearGradient>
  </defs>
  <rect width="512" height="512" rx="64" fill="url(#gradient)"/>
  <g fill="white">
    <!-- Router/Network icon -->
    <circle cx="256" cy="200" r="32" opacity="0.9"/>
    <circle cx="180" cy="280" r="24" opacity="0.7"/>
    <circle cx="332" cy="280" r="24" opacity="0.7"/>
    <circle cx="140" cy="360" r="20" opacity="0.6"/>
    <circle cx="220" cy="360" r="20" opacity="0.6"/>
    <circle cx="292" cy="360" r="20" opacity="0.6"/>
    <circle cx="372" cy="360" r="20" opacity="0.6"/>
    
    <!-- Connection lines -->
    <line x1="256" y1="232" x2="180" y2="256" stroke="white" stroke-width="3" opacity="0.8"/>
    <line x1="256" y1="232" x2="332" y2="256" stroke="white" stroke-width="3" opacity="0.8"/>
    <line x1="180" y1="304" x2="140" y2="340" stroke="white" stroke-width="2" opacity="0.6"/>
    <line x1="180" y1="304" x2="220" y2="340" stroke="white" stroke-width="2" opacity="0.6"/>
    <line x1="332" y1="304" x2="292" y2="340" stroke="white" stroke-width="2" opacity="0.6"/>
    <line x1="332" y1="304" x2="372" y2="340" stroke="white" stroke-width="2" opacity="0.6"/>
    
    <!-- Signal waves -->
    <path d="M 256 150 Q 226 120 196 150" stroke="white" stroke-width="3" fill="none" opacity="0.4"/>
    <path d="M 256 150 Q 286 120 316 150" stroke="white" stroke-width="3" fill="none" opacity="0.4"/>
    <path d="M 256 140 Q 216 100 176 140" stroke="white" stroke-width="2" fill="none" opacity="0.3"/>
    <path d="M 256 140 Q 296 100 336 140" stroke="white" stroke-width="2" fill="none" opacity="0.3"/>
  </g>
  
  <!-- App name -->
  <text x="256" y="460" font-family="Arial, sans-serif" font-size="32" font-weight="bold" 
        text-anchor="middle" fill="white" opacity="0.9">HomeNetMon</text>
</svg>